<?xml version="1.0" encoding="UTF-8"?>
<svg width="18px" height="17px" viewBox="0 0 18 17" version="1.1" xmlns="http://www.w3.org/2000/svg" xmlns:xlink="http://www.w3.org/1999/xlink">
    <!-- Generator: Sketch 53 (72520) - https://sketchapp.com -->
    <title>noun_Ear_1072188</title>
    <desc>Created with Sketch.</desc>
    <g id="Symbols" stroke="none" stroke-width="1" fill="none" fill-rule="evenodd">
        <g id="Viewability-&amp;-Audibility" transform="translate(-135.000000, -5.000000)" fill="#02A79D">
            <g id="Group" transform="translate(106.000000, 5.000000)">
                <g id="noun_Ear_1072188" transform="translate(29.000000, 0.000000)">
                    <g id="Path">
                        <path d="M14.2071429,7.37510638 C14.4069778,7.47006168 14.6403294,7.46794966 14.8383578,7.36939339 C15.0363862,7.27083712 15.1764934,7.08708339 15.2173469,6.87234043 C15.4484222,5.62393318 14.9427271,4.35420261 13.911383,3.59324543 C12.8800388,2.83228825 11.500376,2.71094412 10.3483864,3.2798727 C9.19639688,3.84880127 8.47015477,5.01018048 8.47285714,6.27914894 L8.47285714,8.42042553 C8.47383317,9.42090052 9.29353472,10.2336559 10.3095918,10.2415957 C10.4226093,10.2401475 10.5315812,10.2829694 10.6125301,10.3606394 C10.693479,10.4383094 10.7397725,10.5444636 10.7412245,10.6557447 L10.7412245,10.887234 C10.7453516,11.1179039 10.5603238,11.3089558 10.3261224,11.3158511 C10.1343948,11.3143851 9.95011371,11.3888548 9.81471049,11.5225175 C9.67930726,11.6561801 9.60414512,11.8378186 9.60612245,12.0265957 C9.6159588,12.2239567 9.70636442,12.4090318 9.85681323,12.539801 C10.007262,12.6705702 10.2049892,12.7359383 10.405102,12.7210638 C11.3923369,12.6756904 12.169318,11.8748247 12.1702041,10.9017021 L12.1702041,10.6557447 C12.1692281,9.65526969 11.3495265,8.84251429 10.3334694,8.83457447 C10.2204519,8.83602275 10.11148,8.79320077 10.0305311,8.71553079 C9.94958221,8.63786081 9.90328872,8.53170657 9.90183673,8.42042553 L9.90183673,6.34425532 C9.89400829,5.77996928 10.1264755,5.23822931 10.5428571,4.85042553 C11.1012287,4.34833307 11.9021301,4.20508365 12.6041701,4.48173861 C13.30621,4.75839356 13.7855858,5.40616563 13.8379592,6.14893617 C13.847896,6.30124927 13.8398834,6.45418307 13.8140816,6.60468085 C13.7532288,6.91944111 13.9143582,7.23526518 14.2071429,7.37510638 Z"></path>
                        <path d="M16.0530612,1.74882979 C14.8119014,0.599918331 13.1380146,0.0166305672 11.4391837,0.14106383 C9.20485058,0.297781429 7.23420814,1.63940225 6.29632653,3.64234043 C6.14403081,3.99679904 6.3084435,4.40603016 6.66579917,4.56197567 C7.02315485,4.71792118 7.44150118,4.56299875 7.60591837,4.21382979 C8.23821213,2.86828241 9.48761176,1.90301068 10.96534,1.61837938 C12.4430683,1.33374809 13.9697807,1.76430151 15.0704082,2.77606383 C16.0371438,3.65666632 16.5797341,4.899313 16.5636735,6.19595745 C16.5393495,7.44009513 16.0180041,8.62466233 15.1126531,9.49287234 L14.2604082,10.3265957 C13.7984513,10.7813944 13.5382505,11.397841 13.5367347,12.0410638 L13.5367347,12.9923404 C13.5441184,13.6688216 13.2762435,14.3200775 12.7928571,14.8008511 C12.3281903,15.2646997 11.6803554,15.5046484 11.0204082,15.4573404 C10.2222573,15.3871794 9.51607252,14.9197572 9.14877551,14.2185106 C8.96567621,13.874919 8.53436196,13.7425334 8.18540816,13.9228191 C7.83645437,14.1031049 7.70200274,14.5277914 7.88510204,14.871383 C8.47955753,15.9979853 9.6167144,16.7480773 10.9010204,16.8607447 C11.0063265,16.8691844 11.1110204,16.8734043 11.215102,16.8734043 C12.1906264,16.8691339 13.1246149,16.4841093 13.8122449,15.802766 C14.5658959,15.0518532 14.9832151,14.0353316 14.9712245,12.9796809 L14.9712245,12.0428723 C14.9693165,11.7714171 15.0785606,11.5106524 15.2742857,11.3194681 L16.1926531,10.4152128 C17.3727389,9.26050539 18.0241794,7.68228633 17.9968014,6.04437452 C17.9694234,4.40646271 17.2655895,2.85020644 16.047551,1.7343617 L16.0530612,1.74882979 Z"></path>
                        <path d="M1.0855102,7.99361702 C0.753693881,7.83759058 0.355790049,7.95501936 0.165836166,8.26502982 C-0.0241177179,8.57504028 0.0559153283,8.97638621 0.350816327,9.19265957 C0.930072784,9.54507761 1.11006094,10.2928104 0.753061224,10.8637234 C0.590645869,11.0784321 0.566074469,11.3652996 0.689674039,11.6037595 C0.81327361,11.8422194 1.06361907,11.9909365 1.33549373,11.987407 C1.60736838,11.9838775 1.85364476,11.8287133 1.97081633,11.5871277 C2.34231773,10.9923477 2.45549061,10.275522 2.28489796,9.59776596 C2.11698324,8.92759254 1.68554555,8.35055621 1.0855102,7.99361702 L1.0855102,7.99361702 Z"></path>
                        <path d="M2.62285714,6.08744681 C2.29104082,5.93142037 1.89313699,6.04884914 1.7031831,6.35885961 C1.51322922,6.66887007 1.59326227,7.070216 1.88816327,7.28648936 C2.68280855,7.76095547 3.25161249,8.52876339 3.4677551,9.4187234 C3.68715496,10.3084287 3.53568198,11.2475887 3.04714286,12.0265957 C2.8847275,12.2413044 2.8601561,12.5281719 2.98375567,12.7666318 C3.10735524,13.0050918 3.35770071,13.1538088 3.62957536,13.1502793 C3.90145002,13.1467499 4.14772639,12.9915856 4.26489796,12.75 C4.94883776,11.652472 5.15849263,10.3311691 4.84714286,9.08053191 C4.54067106,7.83073346 3.73992986,6.75322505 2.62285714,6.08744681 L2.62285714,6.08744681 Z"></path>
                        <path d="M4.17489796,4.15957447 C3.84308164,4.00354803 3.4451778,4.1209768 3.25522392,4.43098727 C3.06527004,4.74099773 3.14530308,5.14234366 3.44020408,5.35861702 C6.16684419,7.00489163 7.02549395,10.5137337 5.35959184,13.2021277 C5.19717648,13.4168363 5.17260508,13.7037038 5.29620465,13.9421637 C5.41980422,14.1806237 5.67014969,14.3293407 5.94202434,14.3258113 C6.213899,14.3222818 6.46017537,14.1671175 6.57734694,13.9255319 C7.5798868,12.3175325 7.88743065,10.3814509 7.43142857,8.54882979 C6.98395723,6.71662173 5.81154218,5.13640351 4.17489796,4.15957447 Z"></path>
                    </g>
                </g>
            </g>
        </g>
    </g>
</svg>