<?xml version="1.0" encoding="UTF-8"?>
<svg width="18px" height="12px" viewBox="0 0 18 12" version="1.1" xmlns="http://www.w3.org/2000/svg" xmlns:xlink="http://www.w3.org/1999/xlink">
    <!-- Generator: Sketch 53 (72520) - https://sketchapp.com -->
    <title>android-download</title>
    <desc>Created with Sketch.</desc>
    <g id="Final" stroke="none" stroke-width="1" fill="none" fill-rule="evenodd">
        <g id="Campaign-Optimization" transform="translate(-1027.000000, -349.000000)" fill="#FFFFFF" fill-rule="nonzero">
            <g id="android-download" transform="translate(1027.000000, 349.000000)">
                <path d="M14.512575,4.5375375 C13.987425,1.950075 11.737425,0 9,0 C6.825075,0 4.950075,1.237425 4.012575,3.0375375 C1.762575,3.262575 0,5.174925 0,7.5 C0,9.97485 2.0249625,12 4.5,12 L14.25,12 C16.3125,12 18,10.3125 18,8.25 C18,6.262575 16.46265,4.6499625 14.512575,4.5375375 Z M7.8,6.45 L7.8,3.6 L10.2,3.6 L10.2,6.45 L12.75,6.45 L9,10.2 L5.25,6.45 L7.8,6.45 Z" id="Shape"></path>
            </g>
        </g>
    </g>
</svg>