<svg xmlns="http://www.w3.org/2000/svg" x="0px" y="0px"
width="20" height="20"
viewBox="0 0 172 172"
style=" fill:#000000;"><g fill="none" fill-rule="nonzero" stroke="none" stroke-width="1" stroke-linecap="butt" stroke-linejoin="miter" stroke-miterlimit="10" stroke-dasharray="" stroke-dashoffset="0" font-family="none" font-weight="none" font-size="none" text-anchor="none" style="mix-blend-mode: normal"><path d="M0,172v-172h172v172z" fill="#ffffff" stroke="none"></path><g id="original-icon" fill="#00a79d" stroke="none" opacity="0" visibility="hidden"><path d="M21.5,21.5v14.33333h7.16667l35.83333,57.33333v57.33333h43v-57.33333l35.83333,-57.33333h7.16667v-14.33333h-7.16667h-114.66667zM45.57552,35.83333h80.86295l-33.27181,53.2181v47.11524h-14.33333v-47.11524z"></path></g><g id="subtracted-icon" fill="#00a79d" stroke="none"><path d="M150.5,21.5v14.33333h-7.16667l-35.83333,57.33333v1.94198c-5.79242,4.05382 -10.68894,9.30011 -14.33333,15.38263v-21.43984l33.27181,-53.2181h-80.86295l33.25781,53.2181v47.11524l7.23122,0c-0.00003,0.02388 -0.00005,0.04777 -0.00005,0.07167c0,4.95445 0.71821,9.74115 2.05618,14.26167h-23.62068v-57.33333l-35.83333,-57.33333h-7.16667v-14.33333z"></path></g><g stroke="none"><g id="Filled_3_" fill="#00a79d"><path d="M136.224,100.47667c-9.89,0 -18.84117,3.96317 -25.31983,10.44183c-6.47867,6.47867 -10.44183,15.42983 -10.44183,25.31983c0,19.78 15.98883,35.76167 35.76883,35.76167c19.78,0 35.76883,-15.98167 35.76883,-35.76883c-0.00717,-19.7585 -15.996,-35.74733 -35.776,-35.7545zM156.54867,126.09033l-10.13367,10.13367l10.13367,10.13367l-10.13367,10.13367l-10.13367,-10.13367l-10.13367,10.13367l-10.13367,-10.13367l10.13367,-10.13367l-10.13367,-10.13367l10.13367,-10.13367l10.13367,10.13367l10.13367,-10.13367z"></path></g><g id="Filled_3_" fill="#000000" opacity="0"><path d="M186.39783,136.23833c0,27.70633 -22.46033,50.16667 -50.16667,50.16667c-27.70633,0 -50.16667,-22.46033 -50.16667,-50.16667c0,-27.70633 22.46033,-50.16667 50.16667,-50.16667c27.70633,0 50.16667,22.46033 50.16667,50.16667z"></path></g></g><path d="M100.46233,172v-71.52333h71.53767v71.52333z" id="overlay-drag" fill="#ff0000" stroke="none" opacity="0"></path></g></svg>