<?xml version="1.0" encoding="UTF-8"?>
<svg width="23px" height="13px" viewBox="0 0 23 13" version="1.1" xmlns="http://www.w3.org/2000/svg" xmlns:xlink="http://www.w3.org/1999/xlink">
    <!-- Generator: Sketch 53 (72520) - https://sketchapp.com -->
    <title>Group 8</title>
    <desc>Created with Sketch.</desc>
    <defs>
        <polygon id="path-1" points="3.8121547e-06 0.000559690184 22.9808122 0.000559690184 22.9808122 12.9750361 3.8121547e-06 12.9750361"></polygon>
    </defs>
    <g id="Symbols" stroke="none" stroke-width="1" fill="none" fill-rule="evenodd">
        <g id="Viewability-&amp;-Audibility" transform="translate(-36.000000, -8.000000)">
            <g id="Group-2" transform="translate(10.000000, 8.000000)">
                <g id="Group-8" transform="translate(26.000000, 0.000000)">
                    <g id="Group-3" transform="translate(0.000000, 0.024403)">
                        <mask id="mask-2" fill="white">
                            <use xlink:href="#path-1"></use>
                        </mask>
                        <g id="Clip-2"></g>
                        <path d="M21.0647698,6.96159482 C21.0235223,7.01347006 20.9817919,7.06499597 20.9397566,7.11627236 C20.839014,7.23898637 20.7354505,7.35937985 20.6300825,7.4783261 C20.2252063,7.93554683 19.7849024,8.36220134 19.3175323,8.75764088 C19.2052516,8.85263321 19.0909124,8.94523013 18.9753533,9.03628004 C18.9520229,9.05469463 18.8829212,9.10761785 18.8504162,9.13266967 C18.8030693,9.16785202 18.7555698,9.20283474 18.7078162,9.23746814 C18.4588571,9.41804587 18.202477,9.58866775 17.940887,9.75103052 C17.4147842,10.0776274 16.86314,10.3640766 16.2942394,10.6118002 C16.2661566,10.6240267 16.237845,10.6357791 16.209635,10.647756 C16.1796715,10.659733 16.0801488,10.7005795 16.0485334,10.7130555 C15.908551,10.7682493 15.7673997,10.820399 15.6255367,10.8706524 C15.3521544,10.9674912 15.0749599,11.053925 14.7954781,11.1320996 C14.2449013,11.2861783 13.6832439,11.400733 13.116656,11.4804048 C12.0382737,11.6132992 10.9458881,11.6134739 9.86748033,11.4808789 C9.26165271,11.3956927 8.66299193,11.2692858 8.07533558,11.1011092 C7.77244718,11.014376 7.4732947,10.9153165 7.17785271,10.8067004 C7.06153116,10.7639576 6.94620077,10.7187695 6.83127702,10.6725334 C6.79168144,10.6559653 6.71337978,10.6234528 6.68631348,10.6117752 C6.60623282,10.5771668 6.52666044,10.5414106 6.4473168,10.5051802 C5.88357536,10.2479 5.34047039,9.9476524 4.82094994,9.61262169 C4.58472343,9.46023973 4.35459635,9.29902476 4.12929801,9.13154683 C4.09633558,9.10624549 4.02837757,9.05442015 4.00522508,9.03625509 C3.94733116,8.99091727 3.88999635,8.94475605 3.83291569,8.8983952 C3.70924939,8.79798829 3.58794663,8.69473685 3.46819414,8.58986353 C3.04458751,8.21877716 2.64781845,7.81849693 2.27783613,7.39580979 C2.18929249,7.29465432 2.10283282,7.19177716 2.01761845,7.08790192 C1.98953558,7.05371766 1.96208807,7.0190094 1.93446265,6.98447582 C1.91174221,6.95500749 1.85311127,6.87990192 1.83415215,6.8549499 C1.74260961,6.73443167 1.65363392,6.61204203 1.56684387,6.48820518 C1.66087702,6.35426276 1.75722287,6.22191727 1.85628807,6.09144319 C1.87628917,6.06516871 1.89649359,6.03904395 1.9166726,6.01291919 C1.95769138,5.96144319 1.99906597,5.91024165 2.04084718,5.85936449 C2.14156431,5.73665048 2.24515326,5.6162071 2.3504958,5.4972858 C2.75537204,5.04006507 3.19567591,4.61341056 3.66309691,4.21797102 C3.77535215,4.12300365 3.88969138,4.03040672 4.00522508,3.93933186 C4.0284284,3.92104203 4.09684387,3.8686428 4.12957757,3.84341631 C4.17712785,3.80805931 4.22483061,3.77295182 4.27278751,3.73816871 C4.52177204,3.55761593 4.77812674,3.38699405 5.03969138,3.22460633 C5.56576873,2.8980094 6.11741293,2.61158522 6.68631348,2.36386161 C6.71437094,2.35166008 6.74263171,2.33990768 6.77079083,2.32793071 C6.80062729,2.31597869 6.90032785,2.27508234 6.93199414,2.26258138 C7.07192564,2.20738752 7.21312785,2.15526276 7.35496541,2.1050094 C7.62834773,2.00814568 7.90549138,1.9217119 8.18497315,1.84351228 C8.73549912,1.68943359 9.29715657,1.57490384 9.86374442,1.49523205 C10.9421013,1.36233762 12.034487,1.36218791 13.1128693,1.49475797 C13.7187477,1.57994415 14.3174339,1.70635106 14.9051665,1.87452764 C15.2080549,1.96123589 15.507182,2.0603453 15.802624,2.16893647 C15.9190472,2.21172917 16.0345301,2.25696718 16.1495555,2.30325317 C16.1893035,2.31987121 16.267224,2.35220902 16.294214,2.36386161 C16.3742693,2.39847006 16.4538417,2.43420134 16.5331599,2.47043167 C17.0969776,2.72773685 17.6400825,3.0279595 18.1595776,3.36301516 C18.3960836,3.51552188 18.6264903,3.67698637 18.8520173,3.84466392 C18.8852593,3.87016488 18.9523533,3.92131651 18.9753278,3.93930691 C19.0332218,3.98471958 19.0905312,4.03085585 19.1476118,4.0772167 C19.2713035,4.17764856 19.3926317,4.2808501 19.5123842,4.38577332 C19.9359908,4.75685969 20.3327345,5.15716488 20.7027422,5.57980211 C20.791235,5.68095758 20.8777455,5.78383474 20.9629599,5.88766008 C20.9910173,5.92184434 21.0184394,5.95652764 21.0460394,5.99103628 C21.0687091,6.02042975 21.1274671,6.09568503 21.1464262,6.120662 C21.2379687,6.24118023 21.3269444,6.36359482 21.4137599,6.48745662 C21.3197267,6.62137409 21.2233809,6.75369463 21.1243157,6.88414376 C21.1046196,6.91006891 21.0846947,6.93581939 21.0647698,6.96159482 M22.8817952,6.13518407 C21.4899013,4.00892303 19.4937301,2.27111497 17.149382,1.21764088 C15.8945477,0.653750288 14.5843356,0.289376008 13.2174748,0.110295393 C11.8631941,-0.0671383877 10.4984428,-0.0233975048 9.15226928,0.19815144 C6.58379193,0.620788676 4.17392564,1.83295758 2.27044055,3.56929347 C1.4398737,4.32691152 0.711396354,5.19933378 0.0987576796,6.13518407 C-0.0329141436,6.33632226 -0.0329141436,6.63928964 0.0987576796,6.84042783 C1.4906516,8.96668887 3.48682287,10.704472 5.8310947,11.757971 C7.08587812,12.3218616 8.39606486,12.6862109 9.76287481,12.8653415 C11.1171555,13.0427503 12.4819323,12.9989345 13.8281057,12.7774854 C16.3966085,12.3548482 18.8066019,11.1427042 20.7101378,9.40634338 C21.5407046,8.64875029 22.269182,7.77632802 22.8817952,6.84045278 C22.9524472,6.73248541 22.9831477,6.61002092 22.9806825,6.48793071 C22.9831986,6.36574069 22.952498,6.24317639 22.8817952,6.13518407" id="Fill-1" fill="#02A79D" mask="url(#mask-2)"></path>
                    </g>
                    <path d="M14.2284049,6.87150806 C14.2038038,7.0187 14.1705872,7.16397063 14.1275098,7.30734491 C14.1018667,7.39280557 14.0714966,7.476819 14.0390678,7.55998407 C14.0386104,7.56113186 14.03828,7.56203013 14.0378225,7.56315298 C14.021964,7.59771152 14.005343,7.63197063 13.9883916,7.66605509 C13.9100137,7.82377678 13.8169463,7.97418752 13.714806,8.11806084 C13.7066225,8.12958868 13.6981596,8.14091689 13.6897728,8.15229501 C13.674448,8.17150806 13.6547264,8.1961357 13.6429596,8.21000902 C13.5789408,8.28538906 13.5106524,8.35710115 13.4403308,8.42679213 C13.3778115,8.48874798 13.3120391,8.54743512 13.2449706,8.60452534 C13.2272568,8.61959635 13.2092634,8.63429309 13.1911684,8.64886507 C13.1770634,8.65964434 13.1628822,8.67029885 13.1530977,8.67726046 C13.0085408,8.78028733 12.8545043,8.87013954 12.6955883,8.9500858 C12.6556623,8.97019712 12.6149993,8.98893608 12.5742855,9.00747543 C12.5713629,9.00879789 12.5689231,9.00992073 12.56628,9.01114338 C12.4895286,9.04086123 12.4114811,9.06726046 12.3328491,9.09166353 C12.1804899,9.13902246 12.0243949,9.17383052 11.866775,9.19930653 C11.6192137,9.22460787 11.370712,9.22498215 11.1230745,9.20030461 C10.9735872,9.17617601 10.8260568,9.14361363 10.6804579,9.10146967 C10.5934137,9.07626814 10.5078435,9.04645048 10.4231375,9.01461171 C10.4219684,9.01416257 10.4210281,9.01381324 10.4199098,9.01338906 C10.3846855,8.997819 10.349817,8.98150038 10.315101,8.96485739 C10.1544568,8.88790537 10.0012844,8.79653109 9.85471978,8.69624894 C9.84292751,8.68818944 9.83136398,8.67985547 9.81974961,8.67159635 C9.80020597,8.65657524 9.7751474,8.63726238 9.76104243,8.6257096 C9.68426564,8.56288042 9.61122475,8.4958094 9.54026785,8.42679213 C9.47716398,8.36543512 9.41738939,8.30083436 9.35924133,8.23496104 C9.34396729,8.21766929 9.32902365,8.20007812 9.3142579,8.18238714 C9.30322807,8.16846392 9.29227448,8.15444088 9.28515845,8.14478445 C9.18022254,8.00283244 9.08868,7.85162322 9.00727779,7.69559827 C8.98679381,7.6563737 8.96770762,7.61645048 8.94882475,7.57647735 C8.94752862,7.57373263 8.9464358,7.57143704 8.94524133,7.56894184 C8.91489657,7.49348695 8.88800818,7.41673455 8.86307669,7.33943321 C8.81486564,7.18982092 8.77938718,7.0365906 8.75343912,6.8818382 C8.72769436,6.63883052 8.72728773,6.39492457 8.75239713,6.15189194 C8.77699823,6.00504933 8.81016398,5.86012802 8.85311425,5.71710307 C8.87875735,5.63164242 8.90915293,5.54762898 8.94158166,5.46446392 C8.9420137,5.46331612 8.9423695,5.46241785 8.94280155,5.46131996 C8.95868552,5.42673647 8.97530652,5.3925023 8.9922579,5.3583929 C9.07061039,5.20067121 9.1637032,5.05028541 9.26581812,4.90638714 C9.27395072,4.89490921 9.28236287,4.88365585 9.2907242,4.87232764 C9.30604906,4.85306468 9.32584685,4.82833724 9.33766453,4.81441401 C9.4016579,4.73903397 9.46997171,4.66732188 9.54026785,4.5976309 C9.60276177,4.53567505 9.66853414,4.47698791 9.73565348,4.4198977 C9.75334188,4.40485163 9.77130983,4.39015489 9.78937945,4.37558292 C9.80350983,4.3648286 9.81771646,4.35414914 9.82750099,4.34716257 C9.97210873,4.2441357 10.1260944,4.15428349 10.2850104,4.07436219 C10.3249618,4.05425086 10.3656248,4.0355119 10.4063386,4.01697255 C10.4091341,4.0157 10.4114723,4.01462706 10.4140137,4.01345432 C10.4908667,3.98366161 10.5690413,3.95726238 10.6478004,3.93278445 C10.8001341,3.88545048 10.9562546,3.85061747 11.1138745,3.82514146 C11.361385,3.79984012 11.6098358,3.79946583 11.8573971,3.82411843 C12.0069352,3.84824702 12.1545165,3.88083436 12.3001916,3.92300326 C12.3872358,3.94817985 12.472806,3.97802246 12.557512,4.00986123 C12.5586811,4.01031036 12.559596,4.01063474 12.5607143,4.01105893 C12.5959386,4.02665393 12.6308071,4.0429975 12.6655485,4.05961555 C12.8261927,4.13656756 12.9793905,4.22794184 13.1259297,4.32819904 C13.1374933,4.33610883 13.1488535,4.34431804 13.1602899,4.35242745 C13.1799352,4.36752342 13.2053496,4.38711075 13.2195817,4.39876334 C13.2963585,4.46156756 13.3693993,4.52866353 13.4403817,4.59765585 C13.5034855,4.65901286 13.5632601,4.72358868 13.6214082,4.78948695 C13.6366568,4.80675374 13.651575,4.82431996 13.6663154,4.84198599 C13.6773452,4.85593417 13.6883242,4.8700071 13.695491,4.87966353 C13.800427,5.02161555 13.8919441,5.17282476 13.9733717,5.32882476 C13.9938557,5.36807428 14.0129165,5.40797255 14.0318248,5.44794568 C14.0331717,5.45081516 14.0343154,5.45323551 14.0355607,5.45583052 C14.0658546,5.53116065 14.0926922,5.60778829 14.1175728,5.68498983 C14.1658601,5.83482668 14.2013894,5.98830653 14.2273375,6.14330845 C14.240375,6.2658977 14.247491,6.38873647 14.248101,6.51222399 C14.2475165,6.6324428 14.2408071,6.75211267 14.2284049,6.87150806 M13.2232886,8.69139635 C13.3602886,8.58199635 13.3157886,8.61839635 13.2232886,8.69139635 M9.34694035,8.2138057 C9.45624035,8.3508057 9.41984035,8.3062057 9.34694035,8.2138057 M9.83198939,4.40807467 C9.69478939,4.51747467 9.73938939,4.48107467 9.83198939,4.40807467 M13.7083225,4.88570554 C13.5989225,4.74860554 13.6353225,4.79330554 13.7083225,4.88570554 M15.6713054,6.51222399 C15.6678491,5.84004165 15.4983861,5.1912643 15.1869076,4.59421248 C14.8851629,4.01579981 14.426027,3.54343321 13.8984502,3.15989578 C12.8542248,2.40080557 11.3954148,2.21024702 10.1722977,2.6166405 C8.90046122,3.03920288 7.91776398,4.03189386 7.50099381,5.28166545 C7.09782033,6.49066545 7.33496177,7.91410307 8.11579271,8.92905125 C8.51271425,9.44498407 9.00422807,9.8805714 9.59673856,10.171437 C10.2063783,10.4706866 10.8795286,10.6266866 11.5619551,10.6165061 C12.9267573,10.5961203 14.1605485,9.90457524 14.9436667,8.82335451 C15.4175938,8.16903781 15.6590557,7.34901478 15.6703905,6.54982668 C15.6710513,6.53737562 15.6713817,6.52482476 15.6713054,6.51222399" id="Fill-4" fill="#02A79D"></path>
                    <path d="M10.7940042,6.53427908 C10.7947666,6.46491248 10.7993158,6.39636929 10.8077788,6.32747678 C10.7993158,6.38938273 10.7908274,6.45128868 10.7823644,6.51321958 C10.7937501,6.43499501 10.8100661,6.35851708 10.8316937,6.28241344 C10.840792,6.25037505 10.8519744,6.21896046 10.8631567,6.18757083 C10.9033114,6.07478772 10.7791368,6.36358234 10.8568031,6.20264184 C10.8900959,6.13364952 10.9306572,6.06827524 10.9738108,6.00487217 C11.0732827,5.85870326 10.8868683,6.10695086 10.9629335,6.01689904 C10.991118,5.9835382 11.0217169,5.95224837 11.0525699,5.92130787 C11.0757478,5.8981025 11.1003235,5.87631939 11.1248992,5.85456123 C11.2577147,5.73698733 11.0140926,5.93168791 11.1104893,5.86262073 C11.1732373,5.8176572 11.24056,5.77923109 11.3092296,5.74374933 C11.3388628,5.72842879 11.3694617,5.71497965 11.3999843,5.70155547 C11.1781423,5.79916775 11.3331954,5.73157274 11.3878617,5.71408138 C11.4749059,5.68623493 11.5649744,5.66871862 11.6554495,5.65599309 C11.5924219,5.66430211 11.529318,5.67263608 11.466265,5.68094511 C11.536434,5.67263608 11.6062473,5.66816967 11.6768992,5.66742111 C12.0647478,5.66325413 12.3885014,5.3527762 12.3885014,4.96876468 C12.3885014,4.59106603 12.0648495,4.26594127 11.6768992,4.27010825 C11.0641081,4.27669559 10.483949,4.51229251 10.0462373,4.93325797 C9.61221083,5.35068023 9.37740751,5.9421428 9.37079978,6.53425413 C9.36655558,6.91514664 9.69770475,7.23291056 10.082402,7.23291056 C10.4735036,7.23293551 10.78976,6.91507179 10.7940042,6.53427908" id="Fill-6" fill="#02A79D"></path>
                </g>
            </g>
        </g>
    </g>
</svg>